# xmcd
# 
# Track frame offsets:
#     150
#     23142
#     41137
#     54110
#     77102
#     99567
#     120987
#     138590
#     157710
#     177492
#     193957
#     212460
# 
# Disc length: 3040
# 
# Revision: 1
# Processed by: cddbd v1.5.2PL0 Copyright (c) Steve Scherf et al.
# Submitted via: fre:ac v1.0.17
# 
DISCID=990bde0c
DTITLE=Chris Rea - Hofner Blue Notes
DYEAR=2003
DGENRE=Jazz
TTITLE0=Spy
TTITLE1=Expectations
TTITLE2=Hofner Blue Notes
TTITLE3=Paris in Minneapolis
TTITLE4=Sâo Paulo Blue
TTITLE5=What Became
TTITLE6=Detroit
TTITLE7=Goodnight Joe
TTITLE8=Take The Mingus Train
TTITLE9=Alone
TTITLE10=Saudi Blue
TTITLE11=Kestrel Avenue
EXTD=
EXTT0=
EXTT1=
EXTT2=
EXTT3=
EXTT4=
EXTT5=
EXTT6=
EXTT7=
EXTT8=
EXTT9=
EXTT10=
EXTT11=
PLAYORDER=
